<?xml version="1.0" encoding="utf-8"?>
<!-- Generator: Adobe Illustrator 14.0.0, SVG Export Plug-In . SVG Version: 6.00 Build 43363)  -->
<!DOCTYPE svg PUBLIC "-//W3C//DTD SVG 1.1//EN" "http://www.w3.org/Graphics/SVG/1.1/DTD/svg11.dtd">
<svg version="1.1" id="Layer_1" xmlns="http://www.w3.org/2000/svg" xmlns:xlink="http://www.w3.org/1999/xlink" x="0px" y="0px"
	 width="372.881px" height="104.1px" viewBox="0 0 372.881 104.1" enable-background="new 0 0 372.881 104.1" xml:space="preserve">
<g>
	<path d="M21.362,43.812c-4.597,0-8.174-1.724-10.734-5.171s-3.84-7.705-3.84-12.774c0-5.036,1.36-9.248,4.081-12.636
		c2.72-3.388,6.311-5.082,10.772-5.082c4.495,0,8.047,1.694,10.658,5.082s3.916,7.625,3.916,12.712c0,5.34-1.356,9.652-4.068,12.939
		C29.435,42.169,25.84,43.812,21.362,43.812z M21.413,38.794c2.247,0,4.148-0.93,5.703-2.788s2.332-5.23,2.332-10.113
		c0-3.971-0.642-7.085-1.926-9.341s-3.278-3.384-5.982-3.384c-5.34,0-8.01,4.301-8.01,12.901c0,4.174,0.68,7.338,2.041,9.493
		C16.93,37.717,18.878,38.794,21.413,38.794z"/>
	<path d="M47.469,43.28H41.69V17.68h5.221v6.108c0.744-2.382,1.766-4.122,3.067-5.221c1.301-1.099,2.636-1.648,4.004-1.648
		c0.186,0,0.439,0.009,0.761,0.025v6.21c-2.94,0-4.888,0.938-5.843,2.813c-0.955,1.876-1.432,3.692-1.432,5.45V43.28z"/>
	<path d="M71.803,38.769v4.512c-1.724,0.371-3.059,0.558-4.005,0.558c-1.555,0-2.89-0.309-4.005-0.925
		c-1.115-0.617-1.931-1.462-2.446-2.535c-0.516-1.073-0.773-2.725-0.773-4.955V22.166H57.38V17.68h3.523l0.533-6.666l4.74-0.431
		v7.097h5.146v4.486h-5.146v12.496c0,1.605,0.292,2.699,0.875,3.282s1.686,0.875,3.308,0.875
		C70.814,38.819,71.296,38.803,71.803,38.769z"/>
	<path d="M97.859,43.28H92.08V26.525c0-1.808-0.385-3.079-1.153-3.814c-0.77-0.734-1.669-1.103-2.7-1.103
		c-1.639,0-3.016,0.65-4.131,1.952c-1.115,1.301-1.673,3.447-1.673,6.438V43.28h-5.779V8.682h5.779v13.484
		c1.436-3.684,3.954-5.525,7.553-5.525c5.256,0,7.883,3.017,7.883,9.049V43.28z"/>
	<path d="M114.816,43.812c-3.785,0-6.675-1.36-8.668-4.081c-1.994-2.72-2.991-5.838-2.991-9.353c0-3.785,1.103-6.937,3.308-9.455
		c2.205-2.518,5.115-3.776,8.732-3.776c3.43,0,6.248,1.226,8.453,3.676s3.308,5.636,3.308,9.556c0,4.039-1.146,7.287-3.435,9.746
		C121.233,42.583,118.331,43.812,114.816,43.812z M115.02,39.047c3.887,0,5.83-2.897,5.83-8.693c0-2.619-0.465-4.686-1.395-6.197
		c-0.93-1.513-2.357-2.269-4.283-2.269c-1.994,0-3.473,0.781-4.437,2.345c-0.963,1.562-1.444,3.637-1.444,6.223
		c0,2.788,0.511,4.917,1.533,6.387C111.847,38.312,113.245,39.047,115.02,39.047z"/>
	<path d="M138.01,43.28h-5.779V8.682h5.779V43.28z"/>
	<path d="M154.966,43.812c-3.785,0-6.675-1.36-8.668-4.081c-1.994-2.72-2.991-5.838-2.991-9.353c0-3.785,1.103-6.937,3.308-9.455
		c2.205-2.518,5.115-3.776,8.732-3.776c3.43,0,6.248,1.226,8.453,3.676s3.308,5.636,3.308,9.556c0,4.039-1.146,7.287-3.435,9.746
		C161.383,42.583,158.48,43.812,154.966,43.812z M155.169,39.047c3.887,0,5.83-2.897,5.83-8.693c0-2.619-0.465-4.686-1.395-6.197
		c-0.93-1.513-2.357-2.269-4.283-2.269c-1.994,0-3.473,0.781-4.437,2.345c-0.963,1.562-1.444,3.637-1.444,6.223
		c0,2.788,0.511,4.917,1.533,6.387C151.996,38.312,153.395,39.047,155.169,39.047z"/>
	<path d="M195.75,12.788v4.436h-1.774c-0.777,0-1.458,0.093-2.04,0.278c-0.583,0.187-1.153,0.786-1.711,1.8
		c2.027,1.656,3.041,3.498,3.041,5.525c0,2.265-0.95,4.141-2.852,5.628c-1.9,1.486-4.415,2.23-7.541,2.23
		c-1.352,0-2.932-0.22-4.739-0.659c-1.184,0.541-1.774,1.377-1.774,2.509c0,0.626,0.287,1.2,0.861,1.724
		c0.574,0.524,1.445,0.786,2.611,0.786h7.604c2.603,0,4.643,0.672,6.122,2.015c1.479,1.344,2.217,3.013,2.217,5.007
		c0,2.416-1.119,4.418-3.358,6.007c-2.239,1.588-5.556,2.383-9.949,2.383c-8.263,0-12.395-2.307-12.395-6.92
		c0-2.281,1.242-4.013,3.726-5.196c-1.588-1.352-2.382-2.763-2.382-4.232c0-2.23,1.359-4.005,4.08-5.323
		c-2.365-1.437-3.548-3.413-3.548-5.932c0-2.129,0.87-3.945,2.61-5.449s4.385-2.256,7.934-2.256c1.622,0,3.27,0.178,4.942,0.532
		c0.777-3.261,2.831-4.892,6.16-4.892H195.75z M176.283,41.886c-0.828,0.761-1.242,1.496-1.242,2.206
		c0,1.166,0.693,2.192,2.079,3.079c1.385,0.888,3.59,1.331,6.615,1.331c4.444,0,6.666-1.141,6.666-3.422
		c0-0.846-0.389-1.483-1.166-1.914s-1.664-0.646-2.661-0.646h-6.134C179.274,42.52,177.889,42.309,176.283,41.886z M182.62,29.264
		c3.143,0,4.715-1.479,4.715-4.437c0-1.132-0.394-2.086-1.179-2.863c-0.786-0.777-1.931-1.166-3.435-1.166
		c-1.521,0-2.7,0.405-3.536,1.216c-0.837,0.812-1.255,1.825-1.255,3.042c0,1.251,0.414,2.265,1.242,3.042
		S181.149,29.264,182.62,29.264z"/>
	<path d="M218.41,17.68l-9.961,29.149c-0.607,1.791-1.441,3.181-2.496,4.169c-1.057,0.989-2.547,1.483-4.475,1.483
		c-0.76,0-1.867-0.06-3.32-0.178v-4.588l2.764,0.051c1.217,0,2.115-0.198,2.699-0.596c0.582-0.397,1.043-1.103,1.381-2.116
		s0.508-1.605,0.508-1.774c0-0.102-0.178-0.625-0.533-1.571l-8.795-24.029h6.059l6.209,16.881l5.348-16.881H218.41z"/>
</g>
<g>
	<path d="M71.705,88.108V55.867H84.46c3.212,0,5.594,0.787,7.145,2.36c1.55,1.573,2.327,3.398,2.327,5.476
		c0,3.65-1.905,6.073-5.716,7.269c2.268,0.584,3.953,1.624,5.055,3.12c1.102,1.497,1.653,3.191,1.653,5.082
		c0,2.537-0.854,4.66-2.563,6.37c-1.708,1.71-4.342,2.564-7.9,2.564H71.705z M75.603,69.685h7.015c2.913,0,4.857-0.555,5.834-1.665
		c0.976-1.11,1.464-2.413,1.464-3.909c0-1.479-0.523-2.677-1.571-3.59s-2.61-1.37-4.688-1.37h-8.054V69.685z M75.603,84.565h8.645
		c2.11,0,3.74-0.512,4.89-1.535c1.149-1.023,1.724-2.354,1.724-3.992c0-1.149-0.26-2.216-0.779-3.2
		c-0.52-0.984-1.252-1.744-2.197-2.279s-2.354-0.803-4.228-0.803h-8.054V84.565z"/>
	<path d="M116.37,80.999l3.448,0.708c-0.63,2.039-1.858,3.726-3.685,5.061c-1.827,1.335-3.977,2.002-6.448,2.002
		c-3.26,0-5.897-1.146-7.913-3.439s-3.022-5.3-3.022-9.02c0-3.799,1.047-6.868,3.141-9.209c2.095-2.341,4.725-3.511,7.89-3.511
		c3.118,0,5.625,1.079,7.522,3.236s2.87,5.385,2.917,9.684h-17.337c0,3.606,0.756,6.039,2.268,7.299s3.11,1.89,4.795,1.89
		C112.984,85.699,115.126,84.133,116.37,80.999z M116.157,73.747c-0.031-1.338-0.252-2.527-0.661-3.566s-1.103-1.925-2.078-2.657
		c-0.977-0.732-2.149-1.099-3.52-1.099c-1.843,0-3.405,0.662-4.688,1.984c-1.284,1.323-2.004,3.103-2.161,5.338H116.157z"/>
	<path d="M144.597,88.108h-3.472V72.779c0-2.205-0.48-3.756-1.441-4.653c-0.96-0.897-2.126-1.347-3.495-1.347
		c-1.89,0-3.477,0.756-4.76,2.268s-1.925,3.504-1.925,5.976v13.086h-3.709V64.252h3.449v4.394c1.937-3.369,4.448-5.055,7.534-5.055
		c1.779,0,3.295,0.461,4.547,1.382s2.11,1.957,2.575,3.106c0.464,1.149,0.696,3.228,0.696,6.235V88.108z"/>
	<path d="M166.114,79.747l3.354,0.591c-0.472,2.637-1.52,4.701-3.141,6.193c-1.622,1.492-3.646,2.238-6.07,2.238
		c-3.292,0-5.799-1.213-7.523-3.641s-2.586-5.391-2.586-8.89c0-3.625,0.909-6.64,2.728-9.043c1.819-2.403,4.295-3.605,7.429-3.605
		c2.599,0,4.681,0.775,6.247,2.326c1.567,1.552,2.539,3.556,2.917,6.012l-3.354,0.638c-0.629-3.937-2.53-5.905-5.705-5.905
		c-2.043,0-3.614,0.87-4.715,2.61c-1.1,1.74-1.65,3.996-1.65,6.767c0,3.056,0.546,5.43,1.639,7.122s2.629,2.539,4.608,2.539
		C163.356,85.699,165.297,83.715,166.114,79.747z"/>
	<path d="M193.253,88.108h-3.708V73.629c0-1.7-0.106-2.976-0.319-3.826c-0.212-0.851-0.716-1.586-1.511-2.208
		c-0.796-0.622-1.713-0.934-2.752-0.934c-1.905,0-3.5,0.779-4.783,2.339c-1.283,1.559-1.925,3.646-1.925,6.259v12.85h-3.709V55.867
		h3.709v12.778c1.685-3.369,4.094-5.055,7.228-5.055c1.401,0,2.649,0.275,3.743,0.827c1.095,0.551,1.934,1.275,2.516,2.173
		c0.583,0.897,0.98,1.783,1.193,2.657s0.318,2.334,0.318,4.381V88.108z"/>
	<path d="M232.628,88.108h-3.613V73.275c0-1.527-0.107-2.673-0.32-3.438c-0.213-0.763-0.729-1.464-1.547-2.102
		s-1.74-0.957-2.764-0.957c-1.416,0-2.783,0.649-4.098,1.949c-1.314,1.299-1.973,3.279-1.973,5.94v13.439h-3.59V72.401
		c0-2.095-0.5-3.574-1.5-4.44s-2.051-1.3-3.152-1.3c-1.576,0-2.945,0.678-4.111,2.031c-1.164,1.354-1.748,3.071-1.748,5.149v14.267
		h-3.543V64.252h3.189v4.582c1.779-3.495,4.229-5.243,7.346-5.243c1.717,0,3.174,0.56,4.369,1.677
		c1.197,1.118,1.969,2.465,2.316,4.039c1.637-3.811,4.148-5.716,7.533-5.716c1.623,0,3.043,0.465,4.264,1.394
		c1.221,0.93,2.016,1.996,2.387,3.2c0.369,1.205,0.555,2.902,0.555,5.091V88.108z"/>
	<path d="M258.705,88.108h-3.66c-0.143-0.756-0.283-2.188-0.426-4.299c-1.639,3.307-4.426,4.96-8.361,4.96
		c-2.678,0-4.732-0.71-6.164-2.129c-1.434-1.419-2.15-3.123-2.15-5.109c0-2.413,1.023-4.396,3.07-5.949
		c2.047-1.554,5.527-2.331,10.441-2.331c0.66,0,1.715,0.032,3.164,0.095c0-1.89-0.146-3.255-0.438-4.098s-0.908-1.516-1.854-2.02
		s-2.189-0.756-3.732-0.756c-3.764,0-5.951,1.433-6.566,4.299l-3.424-0.591c0.834-4.394,4.346-6.59,10.533-6.59
		c3.291,0,5.627,0.729,7.004,2.185c1.377,1.457,2.066,3.98,2.066,7.57v10.133C258.208,85.164,258.375,86.707,258.705,88.108z
		 M254.619,76.181c-1.512-0.095-2.662-0.143-3.449-0.143c-2.928,0-5.203,0.482-6.826,1.444c-1.621,0.963-2.432,2.368-2.432,4.215
		c0,1.168,0.438,2.162,1.311,2.983c0.873,0.82,2.137,1.231,3.791,1.231c2.236,0,4.074-0.813,5.516-2.439
		c1.441-1.625,2.16-3.535,2.16-5.729C254.689,77.301,254.666,76.78,254.619,76.181z"/>
	<path d="M269.333,88.108h-3.709V64.252h3.26v5.574c1.15-2.629,2.303-4.334,3.461-5.113s2.342-1.169,3.555-1.169
		c0.379,0,0.865,0.031,1.465,0.094v3.543h-0.756c-2.047,0-3.748,0.765-5.102,2.292c-1.355,1.527-2.08,3.535-2.174,6.022V88.108z"/>
	<path d="M301.031,88.108h-3.844l-6.973-13.319l-5.174,5.95v7.369h-3.709V55.867h3.709v20.667l11.08-12.282h3.967l-7.453,8.377
		L301.031,88.108z"/>
	<path d="M309.394,55.867v4.134h-3.992v-4.134H309.394z M309.275,64.252v23.856h-3.709V64.252H309.275z"/>
	<path d="M335.47,88.108h-3.473V72.779c0-2.205-0.48-3.756-1.441-4.653c-0.959-0.897-2.125-1.347-3.494-1.347
		c-1.891,0-3.477,0.756-4.76,2.268s-1.926,3.504-1.926,5.976v13.086h-3.709V64.252h3.449v4.394c1.938-3.369,4.449-5.055,7.535-5.055
		c1.779,0,3.295,0.461,4.547,1.382s2.109,1.957,2.574,3.106s0.697,3.228,0.697,6.235V88.108z"/>
	<path d="M362.373,60.521v2.952c-1.701,0-2.838,0.197-3.412,0.591c-0.576,0.394-0.957,1.103-1.146,2.126
		c1.527,1.764,2.291,3.685,2.291,5.763c0,2.173-0.83,4.039-2.492,5.598c-1.662,1.56-3.893,2.339-6.695,2.339
		c-0.631,0-1.174-0.047-1.631-0.142c-0.865-0.173-1.408-0.26-1.629-0.26c-0.426,0-0.938,0.209-1.535,0.626
		c-0.6,0.417-0.898,0.956-0.898,1.618c0,0.944,0.434,1.559,1.299,1.842c0.867,0.283,2.906,0.465,6.119,0.543
		c2.723,0.079,4.734,0.265,6.033,0.556c1.301,0.291,2.398,0.937,3.295,1.937c0.898,1,1.348,2.224,1.348,3.673
		c0,4.551-4,6.826-12,6.826c-3.795,0-6.562-0.571-8.303-1.714c-1.74-1.144-2.609-2.668-2.609-4.575c0-2.317,1.213-3.909,3.637-4.776
		c-1.559-1.023-2.338-2.306-2.338-3.849c0-1.841,1.102-3.25,3.307-4.226c-2.062-1.668-3.094-3.77-3.094-6.304
		c0-2.36,0.883-4.296,2.646-5.807c1.762-1.511,3.912-2.267,6.447-2.267c1.795,0,3.426,0.339,4.889,1.016
		c0.236-1.559,0.783-2.638,1.643-3.236c0.857-0.598,2.16-0.897,3.908-0.897C361.625,60.473,361.931,60.489,362.373,60.521z
		 M346.595,87.14c-1.732,0.756-2.6,1.851-2.6,3.283c0,1.213,0.713,2.153,2.139,2.823c1.424,0.669,3.238,1.004,5.443,1.004
		c2.047,0,3.922-0.288,5.623-0.862c1.699-0.575,2.551-1.547,2.551-2.917c0-0.74-0.252-1.347-0.756-1.819
		c-0.504-0.472-1.193-0.771-2.068-0.897c-0.873-0.126-2.396-0.22-4.57-0.283C349.759,87.408,347.837,87.298,346.595,87.14z
		 M351.035,77.055c1.574,0,2.857-0.484,3.85-1.453s1.488-2.224,1.488-3.768c0-1.574-0.516-2.861-1.547-3.861s-2.279-1.5-3.744-1.5
		c-1.4,0-2.645,0.469-3.73,1.405c-1.088,0.937-1.631,2.271-1.631,4.004c0,1.543,0.488,2.791,1.465,3.743
		C348.162,76.578,349.445,77.055,351.035,77.055z"/>
</g>
<rect x="236.966" y="9.94" fill="#39B54A" width="115.182" height="8.401"/>
<rect x="236.966" y="23.248" fill="#21409A" width="88.271" height="8.4"/>
<rect x="236.966" y="36.555" fill="#7F3F98" width="129.178" height="8.401"/>
</svg>
